# xmcd
#
# Track frame offsets:
#	150
#	16872
#	31302
#	47807
#	66615
#	85807
#	103180
#	119915
#	133105
#	150372
#
# Disc length: 2211
#
# Revision: 3
# Processed by: cddbd v1.5.1PL0 Copyright (c) Steve Scherf et al.
# Submitted via: audiograbber 1.81.03
# Normalized: r2:DSETVAR1
#
DISCID=8808a10a
DTITLE=Various Artist - Merry Country Christmas
DYEAR=1986
DGENRE=Country
TTITLE0=Lorrie Morgan - Christmas at our House
TTITLE1=Don Williams - O Come, All Ye Faithful
TTITLE2=John Anderson - What Child is This
TTITLE3=Alabama - Santa Claus
TTITLE4=Keith Whitley - There's a New Kid in Town
TTITLE5=Restless Heart - Little Drummer Boy
TTITLE6=K. T. Oslin - Blue Chrismas
TTITLE7=Oak Ridge Boys - Go Tell it On the Mountain
TTITLE8=Dolly Parton - Hard Candy Christmas
TTITLE9=Ronnie Milsap - It's Just Not Christmas
EXTD=
EXTT0=
EXTT1=
EXTT2=
EXTT3=
EXTT4=
EXTT5=
EXTT6=
EXTT7=
EXTT8=
EXTT9=
PLAYORDER=
